<svg width="16" height="16" viewBox="0 0 16 16" fill="none" xmlns="http://www.w3.org/2000/svg">
<g id="ClockCounterClockwise-d">
<path id="Vector" d="M13.0582 7.90994C13.0582 10.6917 10.8031 12.9468 8.02127 12.9468C5.23944 12.9468 2.98438 10.6917 2.98438 7.90994C2.98438 5.12817 5.23944 2.87305 8.02127 2.87305C10.8031 2.87305 13.0582 5.12817 13.0582 7.90994Z" fill="#1C1C1C" fill-opacity="0.1"/>
<path id="Vector_2" d="M7.5625 5.16249V7.90988C7.5625 8.16278 7.76751 8.36778 8.0204 8.36778C8.27329 8.36778 8.4783 8.16278 8.4783 7.90988V5.16249C8.4783 4.9096 8.27329 4.70459 8.0204 4.70459C7.76751 4.70459 7.5625 4.9096 7.5625 5.16249Z" fill="#1C1C1C"/>
<path id="Vector_3" d="M8.24928 7.51297L10.6303 8.88663C10.7642 8.96387 10.8501 9.10343 10.8587 9.25774C10.8591 9.26624 10.8594 9.27475 10.8594 9.28326C10.8594 9.36359 10.8382 9.4425 10.7981 9.51208C10.7209 9.64596 10.5813 9.73183 10.427 9.74045C10.4185 9.74092 10.41 9.74116 10.4015 9.74116C10.3211 9.74116 10.2422 9.72003 10.1727 9.67988L7.79164 8.30622C7.68867 8.24682 7.61287 8.14977 7.58018 8.03555L7.57814 8.02821C7.56776 7.98952 7.5625 7.94963 7.5625 7.90956C7.5625 7.83638 7.58004 7.76426 7.61365 7.69925C7.61688 7.693 7.62026 7.68683 7.62377 7.68074C7.68314 7.57783 7.78019 7.50203 7.8944 7.46934L7.90174 7.4673C7.94044 7.45692 7.98033 7.45166 8.0204 7.45166C8.09358 7.45166 8.1657 7.4692 8.23071 7.50281C8.23696 7.50605 8.24313 7.50942 8.24928 7.51297Z" fill="#1C1C1C"/>
<path id="Vector_4" d="M2.97244 5.83198V4.00038C2.97244 3.74749 2.76743 3.54248 2.51454 3.54248C2.26165 3.54248 2.05664 3.74749 2.05664 4.00038V6.28988C2.05664 6.54277 2.26165 6.74778 2.51454 6.74778H4.80404C5.05693 6.74778 5.26194 6.54277 5.26194 6.28988C5.26194 6.03699 5.05693 5.83198 4.80404 5.83198H2.97244Z" fill="#1C1C1C"/>
<path id="Vector_5" d="M4.13731 4.02524L2.19123 5.96559C2.10507 6.0515 2.05664 6.16817 2.05664 6.28985C2.05664 6.29752 2.05683 6.3052 2.05722 6.31287C2.06291 6.42597 2.11032 6.53296 2.19028 6.61315C2.27619 6.69932 2.39286 6.74775 2.51454 6.74775C2.52222 6.74775 2.52989 6.74755 2.53756 6.74717C2.65067 6.74147 2.75765 6.69407 2.83785 6.61411L2.83811 6.61385L4.78392 4.67376C5.76649 3.69038 7.12899 3.41893 7.12899 3.41893C8.49149 3.14748 9.77513 3.67887 9.77513 3.67887C11.0588 4.21026 11.8307 5.36532 11.8307 5.36532C12.6027 6.52039 12.6027 7.90966 12.6027 7.90966C12.6027 9.29894 11.8307 10.454 11.8307 10.454C11.0588 11.6091 9.77513 12.1405 9.77513 12.1405C8.49149 12.6719 7.12899 12.4004 7.12899 12.4004C5.76649 12.1289 4.78453 11.1462 4.78453 11.1462C4.69864 11.0602 4.58212 11.0119 4.46061 11.0119C4.45277 11.0119 4.44493 11.0121 4.43711 11.0125C4.32401 11.0184 4.21707 11.0659 4.13696 11.1459C4.05105 11.2318 4.00276 11.3482 4.00271 11.4696L4.00271 11.4698C4.00271 11.4771 4.00289 11.4844 4.00323 11.4916C4.00865 11.6053 4.05624 11.713 4.1367 11.7935L4.13683 11.7936C5.31515 12.9728 6.95005 13.2985 6.95005 13.2985C8.58506 13.6243 10.1254 12.9866 10.1254 12.9866C11.6658 12.3489 12.5921 10.9629 12.5921 10.9629C13.5185 9.5768 13.5185 7.90966 13.5185 7.90966C13.5185 6.24253 12.5921 4.85646 12.5921 4.85646C11.6658 3.47038 10.1254 2.83271 10.1254 2.83271C8.58505 2.19504 6.95006 2.52078 6.95006 2.52078C5.31506 2.84652 4.13731 4.02524 4.13731 4.02524Z" fill="#1C1C1C"/>
</g>
</svg>
