<svg width="16" height="16" viewBox="0 0 16 16" fill="none" xmlns="http://www.w3.org/2000/svg">
<g id="Sidebar-d">
<path id="Vector" d="M2.73427 12.4886C2.6128 12.4886 2.49637 12.4403 2.41046 12.3545C2.32461 12.2685 2.27637 12.1521 2.27637 12.0307V3.78847C2.27637 3.667 2.32461 3.55057 2.41046 3.46466C2.49637 3.3788 2.6128 3.33057 2.73427 3.33057H5.48166V12.4886H2.73427Z" fill="#1C1C1C" fill-opacity="0.1"/>
<path id="Vector_2" d="M5.02344 3.33095V12.4889C5.02344 12.7418 5.22845 12.9468 5.48134 12.9468C5.73423 12.9468 5.93924 12.7418 5.93924 12.4889V3.33095C5.93924 3.07806 5.73423 2.87305 5.48134 2.87305C5.22845 2.87305 5.02344 3.07806 5.02344 3.33095Z" fill="#1C1C1C"/>
<path id="Vector_3" fill-rule="evenodd" clip-rule="evenodd" d="M1.81836 3.78885C1.81836 3.78885 1.81836 3.40951 2.08659 3.14128C2.08659 3.14128 2.35482 2.87305 2.73416 2.87305H12.8079C12.8079 2.87305 13.1873 2.87305 13.4555 3.14128C13.4555 3.14128 13.7237 3.40951 13.7237 3.78885V12.031C13.7237 12.031 13.7237 12.4104 13.4555 12.6786C13.4555 12.6786 13.1873 12.9468 12.8079 12.9468H2.73416C2.73416 12.9468 2.35482 12.9468 2.08659 12.6786C2.08659 12.6786 1.81836 12.4104 1.81836 12.031V3.78885ZM2.73416 3.78885V12.031H12.8079V3.78885H2.73416Z" fill="#1C1C1C"/>
<path id="Vector_4" d="M2.27626 5.62039H3.64996C3.90285 5.62039 4.10786 5.41538 4.10786 5.16249C4.10786 4.9096 3.90285 4.70459 3.64996 4.70459H2.27626C2.02337 4.70459 1.81836 4.9096 1.81836 5.16249C1.81836 5.41538 2.02337 5.62039 2.27626 5.62039Z" fill="#1C1C1C"/>
<path id="Vector_5" d="M2.27626 7.45193H3.64996C3.90285 7.45193 4.10786 7.24692 4.10786 6.99403C4.10786 6.74114 3.90285 6.53613 3.64996 6.53613H2.27626C2.02337 6.53613 1.81836 6.74114 1.81836 6.99403C1.81836 7.24692 2.02337 7.45193 2.27626 7.45193Z" fill="#1C1C1C"/>
<path id="Vector_6" d="M2.27626 9.28347H3.64996C3.90285 9.28347 4.10786 9.07847 4.10786 8.82558C4.10786 8.57268 3.90285 8.36768 3.64996 8.36768H2.27626C2.02337 8.36768 1.81836 8.57268 1.81836 8.82558C1.81836 9.07847 2.02337 9.28347 2.27626 9.28347Z" fill="#1C1C1C"/>
</g>
</svg>
