<svg width="16" height="16" viewBox="0 0 16 16" fill="none" xmlns="http://www.w3.org/2000/svg">
<g id="Star-d">
<path id="Vector" d="M8.39739 11.6725L11.2821 13.5041C11.6542 13.7388 12.1121 13.3896 12.0033 12.9603L11.1676 9.67493C11.1451 9.58384 11.1486 9.48826 11.178 9.39914C11.2074 9.31004 11.2613 9.23103 11.3337 9.17125L13.9208 7.01339C14.2585 6.73293 14.0868 6.16628 13.646 6.13767L10.269 5.92015C10.1769 5.91478 10.0883 5.8827 10.0141 5.82781C9.93989 5.77292 9.88327 5.6976 9.85118 5.61107L8.59196 2.44012C8.55865 2.34848 8.49789 2.26933 8.41807 2.21338C8.33819 2.15746 8.243 2.12744 8.14552 2.12744C8.04798 2.12744 7.95285 2.15746 7.87297 2.21338C7.7931 2.26933 7.73239 2.34848 7.69908 2.44012L6.43986 5.61107C6.40777 5.6976 6.35115 5.77292 6.27692 5.82781C6.20275 5.8827 6.11415 5.91478 6.02204 5.92015L2.64503 6.13767C2.20429 6.16628 2.03258 6.73293 2.37024 7.01339L4.95739 9.17125C5.02972 9.23103 5.08365 9.31004 5.113 9.39914C5.1424 9.48826 5.14598 9.58384 5.1234 9.67493L4.35069 12.72C4.21906 13.2351 4.76851 13.6529 5.20925 13.3725L7.89365 11.6725C7.96895 11.6246 8.05631 11.5992 8.14552 11.5992C8.23473 11.5992 8.3221 11.6246 8.39739 11.6725V11.6725Z" fill="#1C1C1C" fill-opacity="0.1"/>
<path id="Vector_2" fill-rule="evenodd" clip-rule="evenodd" d="M8.15183 12.0588C8.15183 12.0588 8.14902 12.057 8.14569 12.057C8.14569 12.057 8.14236 12.057 8.13955 12.0588L5.45439 13.7592C5.45439 13.7592 5.16875 13.941 4.83892 13.9179C4.83892 13.9179 4.5354 13.8968 4.28839 13.709C4.28839 13.709 4.04446 13.5236 3.93832 13.2382C3.93832 13.2382 3.82418 12.9314 3.90721 12.6065L4.67972 9.56219C4.67972 9.56219 4.68192 9.55333 4.6783 9.54235C4.6783 9.54235 4.67468 9.53138 4.66578 9.52402L2.07714 7.36492C2.07714 7.36492 1.84296 7.17043 1.76613 6.8788C1.76613 6.8788 1.69591 6.61229 1.77847 6.34557C1.77847 6.34557 1.86195 6.07588 2.07324 5.89729C2.07324 5.89729 2.30582 5.70072 2.6155 5.68061L5.99275 5.46309C5.99275 5.46309 6.00069 5.46262 6.0048 5.45958C6.0048 5.45958 6.00891 5.45654 6.01069 5.45174L6.01444 5.44196L7.27157 2.27629C7.27157 2.27629 7.37264 2.00479 7.61049 1.83821C7.61049 1.83821 7.85148 1.66943 8.14569 1.66943C8.14569 1.66943 8.43991 1.66943 8.68089 1.83821C8.68089 1.83821 8.91874 2.00479 9.01981 2.27629L10.2769 5.44196L10.2807 5.45174C10.2807 5.45174 10.2825 5.45654 10.2866 5.45958C10.2866 5.45958 10.2907 5.46262 10.2958 5.46291L13.6756 5.68059C13.6756 5.68059 13.9856 5.70072 14.2181 5.89729C14.2181 5.89729 14.4294 6.07588 14.5129 6.34557C14.5129 6.34557 14.5955 6.61229 14.5253 6.8788C14.5253 6.8788 14.4484 7.17043 14.2135 7.36553L11.6271 9.52277C11.6271 9.52277 11.6167 9.53138 11.6131 9.54235C11.6131 9.54235 11.6095 9.55333 11.6122 9.56454L12.4473 12.8474C12.4473 12.8474 12.5218 13.1418 12.4179 13.4197C12.4179 13.4197 12.3211 13.6784 12.0996 13.8461C12.0996 13.8461 11.8751 14.0162 11.5987 14.0352C11.5987 14.0352 11.2989 14.0559 11.038 13.8913L8.15245 12.0592L8.1521 12.059L8.15183 12.0588ZM11.5266 13.1167L8.64332 11.2861L8.64297 11.2858C8.64297 11.2858 8.41537 11.1412 8.14569 11.1412C8.14569 11.1412 7.87585 11.1412 7.64815 11.286L4.96443 12.9855C4.96443 12.9855 4.90211 13.0252 4.8426 12.9799C4.8426 12.9799 4.77093 12.9254 4.79449 12.8332L5.56739 9.78744C5.56739 9.78744 5.63437 9.51754 5.54809 9.25572C5.54809 9.25572 5.4618 8.9939 5.24936 8.81824L2.66373 6.66164C2.66373 6.66164 2.6443 6.6455 2.65332 6.61636C2.65332 6.61636 2.65979 6.59546 2.67485 6.59448L6.05161 6.37699C6.05161 6.37699 6.3261 6.36103 6.54943 6.19583C6.54943 6.19583 6.77032 6.03243 6.86723 5.77583L8.12481 2.60901L8.12955 2.59653C8.12955 2.59653 8.1314 2.59145 8.13584 2.58834C8.13584 2.58834 8.14028 2.58523 8.14569 2.58523C8.14569 2.58523 8.15111 2.58523 8.15554 2.58834C8.15554 2.58834 8.15998 2.59145 8.16183 2.59653L8.16657 2.60901L9.42415 5.77583C9.42415 5.77583 9.52106 6.03243 9.74196 6.19583C9.74196 6.19583 9.96528 6.36103 10.2426 6.37717L13.6168 6.5945C13.6168 6.5945 13.6316 6.59546 13.6381 6.61636C13.6381 6.61636 13.6471 6.6455 13.6284 6.66102L11.0405 8.81949C11.0405 8.81949 10.8296 8.9939 10.7433 9.25572C10.7433 9.25572 10.657 9.51753 10.7234 9.78509L11.5597 13.0731C11.5597 13.0731 11.5668 13.1009 11.5468 13.1161C11.5468 13.1161 11.5371 13.1234 11.5266 13.1167Z" fill="#1C1C1C"/>
</g>
</svg>
