<svg width="15" height="16" viewBox="0 0 15 16" fill="none" xmlns="http://www.w3.org/2000/svg">
<g id="Sun-d">
<path id="Vector" d="M11.0804 7.90983C11.0804 9.80649 9.54282 11.3441 7.64616 11.3441C5.7495 11.3441 4.21191 9.80649 4.21191 7.90983C4.21191 6.01317 5.7495 4.47559 7.64616 4.47559C9.54282 4.47559 11.0804 6.01317 11.0804 7.90983Z" fill="#1C1C1C" fill-opacity="0.1"/>
<path id="Vector_2" fill-rule="evenodd" clip-rule="evenodd" d="M7.64605 4.01758C7.64605 4.01758 8.4376 4.01758 9.16119 4.32363C9.16119 4.32363 9.85975 4.61909 10.3982 5.15756C10.3982 5.15756 10.9367 5.69603 11.2321 6.39458C11.2321 6.39458 11.5382 7.11817 11.5382 7.90972C11.5382 7.90972 11.5382 8.70127 11.2321 9.42486C11.2321 9.42486 10.9367 10.1234 10.3982 10.6619C10.3982 10.6619 9.85975 11.2004 9.16119 11.4958C9.16119 11.4958 8.4376 11.8019 7.64605 11.8019C7.64605 11.8019 6.8545 11.8019 6.13091 11.4958C6.13091 11.4958 5.43236 11.2003 4.89389 10.6619C4.89389 10.6619 4.35542 10.1234 4.05996 9.42486C4.05996 9.42486 3.75391 8.70127 3.75391 7.90972C3.75391 7.90972 3.75391 7.11817 4.05996 6.39458C4.05996 6.39458 4.35542 5.69603 4.89389 5.15756C4.89389 5.15756 5.43236 4.61909 6.13091 4.32363C6.13091 4.32363 6.8545 4.01758 7.64605 4.01758ZM7.64605 4.93338C7.64605 4.93338 6.41321 4.93338 5.54146 5.80513C5.54146 5.80513 4.6697 6.67688 4.6697 7.90972C4.6697 7.90972 4.6697 9.14257 5.54146 10.0143C5.54146 10.0143 6.41321 10.8861 7.64605 10.8861C7.64605 10.8861 8.87889 10.8861 9.75064 10.0143C9.75064 10.0143 10.6224 9.14257 10.6224 7.90972C10.6224 7.90972 10.6224 6.67688 9.75064 5.80513C9.75064 5.80513 8.87889 4.93338 7.64605 4.93338Z" fill="#1C1C1C"/>
<path id="Vector_3" d="M8.1033 2.64366V1.49891C8.1033 1.24602 7.89829 1.04102 7.6454 1.04102C7.39251 1.04102 7.1875 1.24602 7.1875 1.49891V2.64366C7.1875 2.89655 7.39251 3.10156 7.6454 3.10156C7.89829 3.10156 8.1033 2.89655 8.1033 2.64366Z" fill="#1C1C1C"/>
<path id="Vector_4" d="M3.43598 3.05257C3.35011 2.9667 3.23364 2.91846 3.1122 2.91846C2.99075 2.91846 2.87429 2.9667 2.78841 3.05257C2.70254 3.13845 2.6543 3.25491 2.6543 3.37636C2.6543 3.4978 2.70254 3.61427 2.78841 3.70014L3.59546 4.50719C3.68133 4.59306 3.7978 4.6413 3.91924 4.6413C4.04069 4.6413 4.15715 4.59306 4.24303 4.50719C4.3289 4.42131 4.37714 4.30485 4.37714 4.1834C4.37714 4.06196 4.3289 3.94549 4.24303 3.85962L3.43598 3.05257Z" fill="#1C1C1C"/>
<path id="Vector_5" d="M2.37999 7.45166H1.23524C0.982352 7.45166 0.777344 7.65667 0.777344 7.90956C0.777344 8.16245 0.982352 8.36746 1.23524 8.36746H2.37999C2.63288 8.36746 2.83789 8.16245 2.83789 7.90956C2.83789 7.65667 2.63288 7.45166 2.37999 7.45166Z" fill="#1C1C1C"/>
<path id="Vector_6" d="M2.78841 12.1189C2.70254 12.2048 2.6543 12.3212 2.6543 12.4427C2.6543 12.4506 2.6545 12.4585 2.65491 12.4664C2.66077 12.5795 2.70833 12.6864 2.78841 12.7665C2.87429 12.8523 2.99075 12.9006 3.1122 12.9006C3.23364 12.9006 3.35011 12.8523 3.43598 12.7665L4.24303 11.9594C4.3289 11.8735 4.37714 11.7571 4.37714 11.6356C4.37714 11.5142 4.3289 11.3977 4.24303 11.3119C4.15715 11.226 4.04069 11.1777 3.91924 11.1777C3.91134 11.1777 3.90344 11.1779 3.89555 11.1783C3.78245 11.1842 3.67554 11.2318 3.59546 11.3118L2.78841 12.1189Z" fill="#1C1C1C"/>
<path id="Vector_7" d="M7.1875 13.1757V14.3204C7.1875 14.5733 7.39251 14.7783 7.6454 14.7783C7.89829 14.7783 8.1033 14.5733 8.1033 14.3204V13.1757C8.1033 12.9228 7.89829 12.7178 7.6454 12.7178C7.39251 12.7178 7.1875 12.9228 7.1875 13.1757Z" fill="#1C1C1C"/>
<path id="Vector_8" d="M11.0482 11.9595L11.8552 12.7665C11.9411 12.8523 12.0576 12.9006 12.179 12.9006C12.3005 12.9006 12.4169 12.8523 12.5028 12.7665C12.5887 12.6806 12.6369 12.5641 12.6369 12.4427C12.6369 12.3212 12.5887 12.2048 12.5028 12.1189L11.6958 11.3119C11.6099 11.226 11.4934 11.1777 11.372 11.1777C11.2505 11.1777 11.1341 11.226 11.0482 11.3119C10.9623 11.3977 10.9141 11.5142 10.9141 11.6356C10.9141 11.7571 10.9623 11.8735 11.0482 11.9595Z" fill="#1C1C1C"/>
<path id="Vector_9" d="M12.912 8.36746H14.0567C14.3096 8.36746 14.5146 8.16245 14.5146 7.90956C14.5146 7.65667 14.3096 7.45166 14.0567 7.45166H12.912C12.6591 7.45166 12.4541 7.65667 12.4541 7.90956C12.4541 8.16245 12.6591 8.36746 12.912 8.36746Z" fill="#1C1C1C"/>
<path id="Vector_10" d="M12.5028 3.70014C12.5887 3.61427 12.6369 3.4978 12.6369 3.37636C12.6369 3.25491 12.5887 3.13845 12.5028 3.05257C12.4169 2.9667 12.3005 2.91846 12.179 2.91846C12.0576 2.91846 11.9411 2.9667 11.8552 3.05257L11.0482 3.85957C10.9623 3.94549 10.9141 4.06196 10.9141 4.1834C10.9141 4.30485 10.9623 4.42132 11.0482 4.50719C11.1341 4.59306 11.2505 4.6413 11.372 4.6413C11.4934 4.6413 11.6099 4.59306 11.6957 4.50719L12.5028 3.70014Z" fill="#1C1C1C"/>
</g>
</svg>
