<svg width="15" height="16" viewBox="0 0 15 16" fill="none" xmlns="http://www.w3.org/2000/svg">
<g id="Bell-d">
<path id="Vector" d="M3.28637 6.53619C3.28559 5.99336 3.39223 5.45569 3.60017 4.95425C3.8081 4.45278 4.11318 3.99742 4.49774 3.61437C4.88242 3.23131 5.33909 2.92814 5.84137 2.7223C6.34376 2.51649 6.88182 2.41208 7.42468 2.41509C9.69126 2.43228 11.5056 4.31539 11.5056 6.5877V6.99409C11.5056 9.0432 11.9349 10.2337 12.3127 10.8862C12.3528 10.9557 12.374 11.0346 12.374 11.1148C12.3741 11.195 12.3531 11.2739 12.3131 11.3434C12.2731 11.413 12.2155 11.4708 12.1462 11.5111C12.0768 11.5514 11.998 11.5728 11.9178 11.5731H2.8743C2.79404 11.5728 2.71522 11.5514 2.64591 11.5111C2.57649 11.4708 2.51892 11.413 2.4789 11.3434C2.43887 11.2739 2.41786 11.195 2.41797 11.1148C2.41808 11.0346 2.43921 10.9557 2.47934 10.8862C2.85709 10.2337 3.28637 9.0432 3.28637 6.99409V6.53619Z" fill="#1C1C1C" fill-opacity="0.1"/>
<path id="Vector_2" fill-rule="evenodd" clip-rule="evenodd" d="M2.82738 6.99397V6.53607C2.82738 6.53607 2.8261 5.6229 3.17608 4.77875C3.17608 4.77875 3.52607 3.93461 4.17359 3.28978C4.17359 3.28978 4.8211 2.64495 5.66669 2.29848C5.66669 2.29848 6.51228 1.952 7.42609 1.95709C7.42609 1.95709 8.35527 1.96412 9.20139 2.33533C9.20139 2.33533 10.0154 2.69246 10.6421 3.33619C10.6421 3.33619 11.2664 3.9774 11.6087 4.80422C11.6087 4.80422 11.9625 5.65858 11.9625 6.58759V6.99397C11.9625 6.99397 11.9625 9.36914 12.7079 10.6567C12.7079 10.6567 12.8306 10.8693 12.8309 11.1143C12.8309 11.1143 12.8311 11.3592 12.709 11.5716C12.709 11.5716 12.5869 11.7839 12.3751 11.907C12.3751 11.907 12.1633 12.03 11.9183 12.0309L2.87317 12.0309C2.87317 12.0309 2.6266 12.03 2.41479 11.907C2.41479 11.907 2.20298 11.7839 2.08087 11.5716C2.08087 11.5716 1.95877 11.3592 1.95898 11.1143C1.95898 11.1143 1.9592 10.8693 2.08168 10.6572C2.08168 10.6572 2.82738 9.36914 2.82738 6.99397ZM3.74318 6.99397C3.74318 6.99397 3.74318 9.61511 2.87478 11.1151L11.9151 11.1151C11.9151 11.1151 11.0467 9.6147 11.0467 6.99397V6.58759C11.0467 6.58759 11.0467 5.06459 9.98594 3.97501C9.98594 3.97501 8.92405 2.88426 7.421 2.87287C7.421 2.87287 6.69018 2.8688 6.01392 3.1459C6.01392 3.1459 5.33765 3.42299 4.81981 3.93869C4.81981 3.93869 4.30196 4.45439 4.02205 5.1295C4.02205 5.1295 3.74215 5.8046 3.74318 6.53607V6.99397Z" fill="#1C1C1C"/>
<path id="Vector_3" d="M9.68544 12.031V11.5731C9.68544 11.3202 9.48043 11.1152 9.22754 11.1152C8.97465 11.1152 8.76964 11.3202 8.76964 11.5731V12.031C8.76964 12.6 8.36729 13.0024 8.36729 13.0024C7.96495 13.4047 7.39594 13.4047 7.39594 13.4047C6.82694 13.4047 6.42459 13.0024 6.42459 13.0024C6.02224 12.6 6.02224 12.031 6.02224 12.031V11.5731C6.02224 11.3202 5.81724 11.1152 5.56434 11.1152C5.31145 11.1152 5.10645 11.3202 5.10645 11.5731L5.10645 12.031C5.10645 12.9794 5.77702 13.65 5.77702 13.65C6.4476 14.3205 7.39594 14.3205 7.39594 14.3205C8.34428 14.3205 9.01486 13.65 9.01486 13.65C9.68544 12.9794 9.68544 12.031 9.68544 12.031Z" fill="#1C1C1C"/>
</g>
</svg>
