<svg width="800px" height="800px" viewBox="0 0 15 14" fill="none" xmlns="http://www.w3.org/2000/svg">
    <path
        d="M8.23917 8.70152H1.97494C1.74145 8.70152 1.54783 8.5079 1.54783 8.27442V4.64116C1.54783 4.45893 1.66172 4.29946 1.82687 4.23682C1.99771 4.17417 2.18565 4.22545 2.29954 4.36212C2.64692 4.77784 3.18792 5.01131 3.72323 4.99423C4.17881 4.98284 4.60021 4.81201 4.91912 4.51019C5.06718 4.3849 5.18677 4.23683 5.27789 4.07168C5.45443 3.76986 5.53986 3.43956 5.53416 3.10357C5.52277 2.57965 5.29499 2.10129 4.90775 1.75391C4.77108 1.63432 4.72551 1.44638 4.78815 1.28123C4.85079 1.11609 5.01025 1.0022 5.18679 1.0022H9.37812C9.61161 1.0022 9.80523 1.19582 9.80523 1.4293V7.12406C9.80523 8.00106 9.10478 8.70152 8.23917 8.70152ZM2.40204 7.84731H8.23917C8.63211 7.84731 8.95102 7.5284 8.95102 7.13547V1.86781H6.06947C6.26879 2.23797 6.37699 2.6537 6.38837 3.0865C6.39976 3.58194 6.27447 4.07168 6.0239 4.49879C5.88723 4.74366 5.6993 4.97716 5.49429 5.148C5.03871 5.5808 4.41228 5.83706 3.746 5.85414C3.26764 5.87123 2.80638 5.75164 2.40774 5.53524V7.84731H2.40204Z"
        fill="#000000" />
    <path
        d="M11.656 12.1184H11.0866C10.8531 12.1184 10.6594 11.9248 10.6594 11.6913C10.6594 11.2984 10.3405 10.9794 9.9476 10.9794C9.55466 10.9794 9.23576 11.2984 9.23576 11.6913C9.23576 11.9248 9.04213 12.1184 8.80865 12.1184H6.53074C6.29726 12.1184 6.10364 11.9248 6.10364 11.6913C6.10364 11.2984 5.78473 10.9794 5.39179 10.9794C4.99885 10.9794 4.67995 11.2984 4.67995 11.6913C4.67995 11.9248 4.48633 12.1184 4.25284 12.1184H3.68336C2.50455 12.1184 1.54783 11.1617 1.54783 9.98286V8.27444C1.54783 8.04095 1.74145 7.84733 1.97494 7.84733H8.23917C8.63211 7.84733 8.95102 7.52842 8.95102 7.13549V3.14915C8.95102 2.91567 9.14464 2.72205 9.37812 2.72205H10.426C10.9898 2.72205 11.508 3.02388 11.787 3.51363L12.7608 5.21635C12.8348 5.34733 12.8348 5.51248 12.7608 5.64346C12.6868 5.77444 12.5444 5.85416 12.3906 5.85416H11.656C11.5763 5.85416 11.5137 5.91681 11.5137 5.99653V7.70496C11.5137 7.78469 11.5763 7.84733 11.656 7.84733H13.3645C13.5979 7.84733 13.7916 8.04095 13.7916 8.27444V9.98286C13.7916 11.1617 12.8348 12.1184 11.656 12.1184ZM11.4567 11.2642H11.656C12.3622 11.2642 12.9374 10.689 12.9374 9.98286V8.70154H11.656C11.1093 8.70154 10.6594 8.25166 10.6594 7.70496V5.99653C10.6594 5.44984 11.1036 4.99995 11.656 4.99995L11.0467 3.93503C10.9214 3.71294 10.6822 3.57626 10.426 3.57626H9.80523V7.13549C9.80523 8.00109 9.10478 8.70154 8.23917 8.70154H2.40204V9.98286C2.40204 10.689 2.97721 11.2642 3.68336 11.2642H3.88267C4.07059 10.6093 4.67425 10.1252 5.39179 10.1252C6.10933 10.1252 6.71299 10.6093 6.90092 11.2642H8.44418C8.6321 10.6093 9.23576 10.1252 9.9533 10.1252C10.6708 10.1252 11.2688 10.6093 11.4567 11.2642Z"
        fill="#000000" />
    <path
        d="M5.39179 13.2574C4.52619 13.2574 3.82573 12.5569 3.82573 11.6913C3.82573 10.8257 4.52619 10.1252 5.39179 10.1252C6.25739 10.1252 6.95785 10.8257 6.95785 11.6913C6.95785 12.5569 6.25739 13.2574 5.39179 13.2574ZM5.39179 10.9795C4.99885 10.9795 4.67995 11.2984 4.67995 11.6913C4.67995 12.0842 4.99885 12.4031 5.39179 12.4031C5.78473 12.4031 6.10364 12.0842 6.10364 11.6913C6.10364 11.2984 5.78473 10.9795 5.39179 10.9795Z"
        fill="#000000" />
    <path
        d="M9.9476 13.2574C9.082 13.2574 8.38154 12.5569 8.38154 11.6913C8.38154 10.8257 9.082 10.1252 9.9476 10.1252C10.8132 10.1252 11.5137 10.8257 11.5137 11.6913C11.5137 12.5569 10.8132 13.2574 9.9476 13.2574ZM9.9476 10.9795C9.55466 10.9795 9.23576 11.2984 9.23576 11.6913C9.23576 12.0842 9.55466 12.4031 9.9476 12.4031C10.3405 12.4031 10.6594 12.0842 10.6594 11.6913C10.6594 11.2984 10.3405 10.9795 9.9476 10.9795Z"
        fill="#000000" />
    <path
        d="M13.3645 8.70153H11.656C11.1093 8.70153 10.6594 8.25165 10.6594 7.70495V5.99652C10.6594 5.44983 11.1093 4.99994 11.656 4.99994H12.3906C12.5444 4.99994 12.6868 5.07967 12.7608 5.21634L13.7346 6.92477C13.7688 6.98741 13.7916 7.06144 13.7916 7.13547V8.27443C13.7916 8.50791 13.5979 8.70153 13.3645 8.70153ZM11.656 5.85415C11.5763 5.85415 11.5137 5.9168 11.5137 5.99652V7.70495C11.5137 7.78468 11.5763 7.84732 11.656 7.84732H12.9373V7.24938L12.1401 5.85415H11.656Z"
        fill="#000000" />
    <path
        d="M3.67773 5.85411C2.89185 5.85411 2.15153 5.51241 1.6504 4.91446C1.57067 4.82904 1.48526 4.70945 1.41122 4.59556C1.14357 4.19123 0.995507 3.71288 0.984118 3.21174C0.961339 2.3803 1.31442 1.60011 1.95223 1.0705C2.43629 0.671868 3.01713 0.455481 3.63216 0.444092C4.30414 0.449787 4.97615 0.671884 5.47729 1.12177C6.04677 1.62291 6.37706 2.32337 6.39414 3.08647C6.40553 3.58191 6.28024 4.07165 6.02967 4.49876C5.89299 4.74363 5.70507 4.97713 5.50006 5.14797C5.04448 5.58077 4.41805 5.83703 3.75176 5.85411C3.72329 5.85411 3.70051 5.85411 3.67773 5.85411ZM3.67773 1.29831C3.66634 1.29831 3.65495 1.29831 3.64356 1.29831C3.22784 1.304 2.8292 1.45776 2.49321 1.73111C2.06041 2.08988 1.82124 2.62519 1.83263 3.18897C1.84402 3.53066 1.94084 3.85527 2.12307 4.12292C2.17432 4.20265 2.22556 4.27665 2.28821 4.34499C2.65267 4.77779 3.19368 5.00559 3.7233 4.9942C4.17888 4.98281 4.60028 4.81198 4.91918 4.51016C5.06725 4.38487 5.18684 4.2368 5.27795 4.07165C5.45449 3.76983 5.53992 3.43953 5.53423 3.10353C5.52284 2.57962 5.29506 2.10126 4.90782 1.75388C4.56613 1.46345 4.13331 1.29831 3.67773 1.29831Z"
        fill="#000000" />
    <path
        d="M3.37008 4.14572C3.26188 4.14572 3.15936 4.10584 3.07394 4.02611L2.49877 3.47944C2.32792 3.31429 2.32225 3.04664 2.4874 2.8758C2.65255 2.70495 2.9202 2.69925 3.09104 2.86439L3.37008 3.13203L4.26416 2.26645C4.43501 2.1013 4.70266 2.10697 4.86781 2.27782C5.03295 2.44866 5.02725 2.71635 4.85641 2.8815L3.66619 4.03181C3.58076 4.10585 3.47259 4.14572 3.37008 4.14572Z"
        fill="#000000" />
</svg>